<?xml version="1.0" encoding="UTF-8"?>
<svg id="Layer_1" data-name="Layer 1" xmlns="http://www.w3.org/2000/svg" viewBox="0 0 666.14 666.14">
  <defs>
    <style>
      .cls-1, .cls-2 {
        fill: none;
      }

      .cls-3 {
        fill-rule: evenodd;
      }

      .cls-2 {
        stroke: #000;
        stroke-width: 5px;
      }
    </style>
  </defs>
  <g id="g10039">
    <path id="path4168" d="M287.1,361.74l.7,1,5.4.2.7-.9-.7-.9-5.5-.2-.7.9.1-.1Z"/>
    <path id="path4170" d="M286.8,361.24l.7-1.2v-8.9l-.7-1.2-.7,1.1v9l.7,1.2Z"/>
    <path id="path4174" d="M286.8,348.94l.7-1.2v-8.9l-.7-1.2-.7,1.1v9l.7,1.2Z"/>
    <path id="path6908" d="M298.9,362.24l.7,1,5.4.2.7-.9-.7-.9-5.5-.2-.7.9.1-.1Z"/>
    <path id="path6910" d="M298.7,361.84l.7-1.2v-8.9l-.7-1.2-.7,1.1v9l.7,1.2Z"/>
    <path id="path6912" d="M306,362.14l.7-1.2v-8.9l-.7-1.2-.7,1.1v9l.7,1.2Z"/>
    <path id="path6914" d="M298.6,349.54l.7-1.2v-8.9l-.7-1.2-.7,1.1v9l.7,1.2Z"/>
    <path id="path7904" d="M306,350.14l.7-1.2v-8.9l-.7-1.2-.7,1.1v9l.7,1.2Z"/>
    <g id="g8584">
      <path id="path6926" d="M313.8,349.84l.3-1.5-2.7-8.3-.9-.8-.3,1.4,2.7,8.4.9.8Z"/>
      <path id="path7986" d="M318.1,362.74l.3-1.5-2.7-8.3-.9-.8-.3,1.4,2.7,8.4.9.8Z"/>
    </g>
    <g id="g8590">
      <path id="path8586" d="M314.6,349.74l1-.6,2.9-7.8-.2-1.5-1,.6-3,7.9.2,1.5.1-.1Z"/>
      <path id="path8588" d="M310.2,362.04l1-.6,2.9-7.8-.2-1.5-1,.6-3,7.9.2,1.5.1-.1Z"/>
    </g>
    <path id="path8939" class="cls-3" d="M296.2,322.64c-3-4.2-2.7-10.3.6-13.7,3.3-3.3,8.3-2.7,11.3,1.6,3,4.2,2.7,10.3-.6,13.7s-8.3,2.7-11.3-1.5"/>
    <path id="path8969" d="M302,306.14l.7-.7v-4.5l-.7-.6-.7.6v4.5l.7.6v.1Z"/>
    <path id="path8971" d="M303.1,332.64l.7-.7v-4.5l-.7-.6-.7.6v4.5l.7.6v.1Z"/>
    <path id="path8973" d="M311.1,316.44l.6.7h4l.5-.5-.5-.7h-4c0-.1-.5.5-.5.5h-.1Z"/>
    <path id="path8975" d="M287.8,316.54l.6.7h4l.5-.5-.5-.7h-4c0-.1-.5.5-.5.5h-.1Z"/>
    <path id="path8977" d="M295,308.94v-.9l-3.5-2.9h-.9v1l3.5,2.9h.8l.1-.1Z"/>
    <path id="path8979" d="M313.1,327.24v-.9l-3.5-2.9h-.9v1l3.5,2.9h.8l.1-.1Z"/>
    <path id="path8981" d="M308.8,310.04h.9l2.7-2.9v-.8h-1l-2.7,2.9v.8h.1Z"/>
    <path id="path8983" d="M292.7,327.24h.9l2.7-2.9v-.8h-1l-2.7,2.9v.8h.1Z"/>
  </g>
  <path class="cls-2" d="M378.1,567.14l84.2-22.5c5.2-1.8,8.7-6.6,8.7-12.1V148.84c0-5.9-4.1-11.1-9.8-12.5l-81.7-16.7"/>
  <path class="cls-2" d="M374.9,566.94l-147.7-23.7c-5.9-.9-10.2-6-10.2-12V132.04c0-7.1,5.7-12.8,12.8-12.8h146.4c7.1,0,12.8,5.7,12.8,12.8v422.9c0,7.5-6.7,13.2-14.1,12Z"/>
  <ellipse class="cls-2" cx="302.6" cy="332.04" rx="57.9" ry="68.8"/>
  <circle class="cls-2" cx="299.5" cy="487.94" r="2.1"/>
  <rect class="cls-1" width="666.14" height="666.14"/>
</svg>